<mxfile host="app.diagrams.net" modified="2023-12-09T14:31:46.755Z" agent="Mozilla/5.0 (X11; Ubuntu; Linux x86_64; rv:120.0) Gecko/20100101 Firefox/120.0" etag="j2zxkrr_mkPx9CogCe7Y" version="22.1.7" type="device">
  <diagram name="Page-1" id="IrJ21_NV24gKu_0WiAIu">
    <mxGraphModel dx="668" dy="385" grid="1" gridSize="10" guides="1" tooltips="1" connect="1" arrows="1" fold="1" page="1" pageScale="1" pageWidth="850" pageHeight="1100" math="1" shadow="0">
      <root>
        <mxCell id="0" />
        <mxCell id="1" parent="0" />
        <mxCell id="Z90WIjOxW-_t78PeYW7R-2" value="$$\pi, \mathcal A, \mathcal B^k$$" style="rounded=1;whiteSpace=wrap;html=1;fillColor=#ffe6cc;strokeColor=#d79b00;" vertex="1" parent="1">
          <mxGeometry x="40" y="310" width="100" height="60" as="geometry" />
        </mxCell>
        <mxCell id="Z90WIjOxW-_t78PeYW7R-3" value="$$\theta$$" style="text;html=1;strokeColor=none;fillColor=none;align=center;verticalAlign=middle;whiteSpace=wrap;rounded=0;" vertex="1" parent="1">
          <mxGeometry x="20" y="310" width="60" height="30" as="geometry" />
        </mxCell>
        <mxCell id="Z90WIjOxW-_t78PeYW7R-6" value="$$\hat Y = y_1, y_2, \dots, y_T$$" style="rounded=1;whiteSpace=wrap;html=1;fillColor=#dae8fc;strokeColor=#6c8ebf;" vertex="1" parent="1">
          <mxGeometry x="20" y="380" width="120" height="60" as="geometry" />
        </mxCell>
        <mxCell id="Z90WIjOxW-_t78PeYW7R-7" value="$$\alpha_1(\cdot)$$" style="ellipse;whiteSpace=wrap;html=1;aspect=fixed;fillColor=#d5e8d4;strokeColor=#82b366;" vertex="1" parent="1">
          <mxGeometry x="190" y="360" width="80" height="80" as="geometry" />
        </mxCell>
        <mxCell id="Z90WIjOxW-_t78PeYW7R-8" style="edgeStyle=none;rounded=0;orthogonalLoop=1;jettySize=auto;html=1;entryX=0.079;entryY=0.238;entryDx=0;entryDy=0;entryPerimeter=0;" edge="1" parent="1" source="Z90WIjOxW-_t78PeYW7R-2" target="Z90WIjOxW-_t78PeYW7R-7">
          <mxGeometry relative="1" as="geometry" />
        </mxCell>
        <mxCell id="Z90WIjOxW-_t78PeYW7R-9" style="edgeStyle=none;rounded=0;orthogonalLoop=1;jettySize=auto;html=1;entryX=0;entryY=0.5;entryDx=0;entryDy=0;" edge="1" parent="1" source="Z90WIjOxW-_t78PeYW7R-6" target="Z90WIjOxW-_t78PeYW7R-7">
          <mxGeometry relative="1" as="geometry" />
        </mxCell>
        <mxCell id="Z90WIjOxW-_t78PeYW7R-12" style="edgeStyle=none;rounded=0;orthogonalLoop=1;jettySize=auto;html=1;" edge="1" parent="1" source="Z90WIjOxW-_t78PeYW7R-10">
          <mxGeometry relative="1" as="geometry">
            <mxPoint x="400" y="400" as="targetPoint" />
          </mxGeometry>
        </mxCell>
        <mxCell id="Z90WIjOxW-_t78PeYW7R-10" value="$$\alpha_2(\cdot)$$" style="ellipse;whiteSpace=wrap;html=1;aspect=fixed;fillColor=#d5e8d4;strokeColor=#82b366;" vertex="1" parent="1">
          <mxGeometry x="300" y="360" width="80" height="80" as="geometry" />
        </mxCell>
        <mxCell id="Z90WIjOxW-_t78PeYW7R-11" style="edgeStyle=none;rounded=0;orthogonalLoop=1;jettySize=auto;html=1;entryX=0;entryY=0.5;entryDx=0;entryDy=0;" edge="1" parent="1" source="Z90WIjOxW-_t78PeYW7R-7" target="Z90WIjOxW-_t78PeYW7R-10">
          <mxGeometry relative="1" as="geometry" />
        </mxCell>
        <mxCell id="Z90WIjOxW-_t78PeYW7R-13" value="$$\dots$$" style="text;html=1;align=center;verticalAlign=middle;resizable=0;points=[];autosize=1;strokeColor=none;fillColor=none;" vertex="1" parent="1">
          <mxGeometry x="380" y="385" width="80" height="30" as="geometry" />
        </mxCell>
        <mxCell id="Z90WIjOxW-_t78PeYW7R-16" style="edgeStyle=orthogonalEdgeStyle;rounded=0;orthogonalLoop=1;jettySize=auto;html=1;dashed=1;exitX=0.5;exitY=0;exitDx=0;exitDy=0;entryX=0.002;entryY=0.356;entryDx=0;entryDy=0;entryPerimeter=0;" edge="1" parent="1" source="Z90WIjOxW-_t78PeYW7R-14" target="Z90WIjOxW-_t78PeYW7R-17">
          <mxGeometry relative="1" as="geometry">
            <mxPoint x="90" y="290" as="targetPoint" />
            <mxPoint x="500.3" y="340" as="sourcePoint" />
            <Array as="points">
              <mxPoint x="500" y="290" />
              <mxPoint x="91" y="290" />
            </Array>
          </mxGeometry>
        </mxCell>
        <mxCell id="Z90WIjOxW-_t78PeYW7R-14" value="$$\sum_i\alpha_T(i)$$" style="ellipse;whiteSpace=wrap;html=1;aspect=fixed;fillColor=#d5e8d4;strokeColor=#82b366;" vertex="1" parent="1">
          <mxGeometry x="460" y="360" width="80" height="80" as="geometry" />
        </mxCell>
        <mxCell id="Z90WIjOxW-_t78PeYW7R-15" style="edgeStyle=none;rounded=0;orthogonalLoop=1;jettySize=auto;html=1;entryX=0;entryY=0.5;entryDx=0;entryDy=0;" edge="1" parent="1" target="Z90WIjOxW-_t78PeYW7R-14">
          <mxGeometry relative="1" as="geometry">
            <mxPoint x="440" y="400" as="sourcePoint" />
          </mxGeometry>
        </mxCell>
        <mxCell id="Z90WIjOxW-_t78PeYW7R-17" value="$$\theta \leftarrow \theta + \frac{\partial}{\partial \theta}(\sum_i\alpha_T(i))$$" style="text;html=1;align=center;verticalAlign=middle;resizable=0;points=[];autosize=1;strokeColor=none;fillColor=none;" vertex="1" parent="1">
          <mxGeometry x="90" y="300" width="430" height="30" as="geometry" />
        </mxCell>
      </root>
    </mxGraphModel>
  </diagram>
</mxfile>
